<svg xmlns="http://www.w3.org/2000/svg" viewBox="0 0 512 512" width="512" height="512">
  <defs>
    <linearGradient id="bgGradient" x1="0%" y1="0%" x2="100%" y2="100%">
      <stop offset="0%" style="stop-color:#dbeafe;stop-opacity:1" />
      <stop offset="50%" style="stop-color:#ffffff;stop-opacity:1" />
      <stop offset="100%" style="stop-color:#dbeafe;stop-opacity:1" />
    </linearGradient>
    <linearGradient id="calc3D" x1="0%" y1="0%" x2="100%" y2="100%">
      <stop offset="0%" style="stop-color:#1e40af;stop-opacity:1" />
      <stop offset="50%" style="stop-color:#0c4a6e;stop-opacity:1" />
      <stop offset="100%" style="stop-color:#0a3d5c;stop-opacity:1" />
    </linearGradient>
    <linearGradient id="screenGlow" x1="0%" y1="0%" x2="0%" y2="100%">
      <stop offset="0%" style="stop-color:#e0f2fe;stop-opacity:1" />
      <stop offset="100%" style="stop-color:#bae6fd;stop-opacity:1" />
    </linearGradient>
    <linearGradient id="number3D" x1="0%" y1="0%" x2="100%" y2="100%">
      <stop offset="0%" style="stop-color:#0284c7;stop-opacity:1" />
      <stop offset="100%" style="stop-color:#0c4a6e;stop-opacity:1" />
    </linearGradient>
    <filter id="depth">
      <feGaussianBlur in="SourceAlpha" stdDeviation="4"/>
      <feOffset dx="0" dy="8" result="offsetblur"/>
      <feComponentTransfer><feFuncA type="linear" slope="0.4"/></feComponentTransfer>
      <feMerge><feMergeNode/><feMergeNode in="SourceGraphic"/></feMerge>
    </filter>
    <radialGradient id="buttonGrad">
      <stop offset="0%" style="stop-color:#f0f9ff;stop-opacity:1" />
      <stop offset="100%" style="stop-color:#e0f2fe;stop-opacity:1" />
    </radialGradient>
  </defs>
  <rect width="512" height="512" rx="96" fill="url(#bgGradient)"/>
  <rect x="147" y="90" width="218" height="295" rx="28" fill="#000000" opacity="0.10" filter="url(#depth)"/>
  <rect x="160" y="74" width="205" height="282" rx="26" fill="#0a3d5c"/>
  <rect x="154" y="70" width="205" height="282" rx="26" fill="url(#calc3D)" filter="url(#depth)"/>
  <rect x="154" y="70" width="205" height="38" rx="26" fill="url(#calc3D)" opacity="0.4"/>
  <rect x="177" y="102" width="159" height="103" rx="10" fill="#0a3d5c"/>
  <rect x="173" y="99" width="166" height="102" rx="10" fill="url(#screenGlow)"/>
  <rect x="173" y="99" width="166" height="102" rx="10" fill="none" stroke="rgba(12, 74, 110, 0.2)" stroke-width="3"/>
  <text x="260" y="176" font-family="Arial Black, sans-serif" font-size="66" font-weight="900" fill="#0a3d5c" text-anchor="middle" opacity="0.3">7</text>
  <text x="256" y="172" font-family="Arial Black, sans-serif" font-size="66" font-weight="900" fill="url(#number3D)" text-anchor="middle">7</text>
  <g>
    <rect x="182" y="234" width="38" height="26" rx="6" fill="#0a3d5c"/>
    <rect x="240" y="234" width="38" height="26" rx="6" fill="#0a3d5c"/>
    <rect x="298" y="234" width="38" height="26" rx="6" fill="#0a3d5c"/>
    <rect x="179" y="230" width="38" height="26" rx="6" fill="url(#buttonGrad)"/>
    <rect x="237" y="230" width="38" height="26" rx="6" fill="url(#buttonGrad)"/>
    <rect x="295" y="230" width="38" height="26" rx="6" fill="url(#buttonGrad)"/>
    <rect x="179" y="230" width="38" height="10" rx="6" fill="white" opacity="0.4"/>
    <rect x="237" y="230" width="38" height="10" rx="6" fill="white" opacity="0.4"/>
    <rect x="295" y="230" width="38" height="10" rx="6" fill="white" opacity="0.4"/>
  </g>
  <g>
    <rect x="182" y="279" width="38" height="26" rx="6" fill="#0a3d5c"/>
    <rect x="240" y="279" width="38" height="26" rx="6" fill="#0a3d5c"/>
    <ellipse cx="322" cy="294" rx="16" ry="16" fill="#0a3d5c"/>
    <rect x="179" y="275" width="38" height="26" rx="6" fill="url(#buttonGrad)"/>
    <rect x="237" y="275" width="38" height="26" rx="6" fill="url(#buttonGrad)"/>
    <circle cx="319" cy="288" r="16" fill="url(#buttonGrad)"/>
    <rect x="179" y="275" width="38" height="10" rx="6" fill="white" opacity="0.4"/>
    <rect x="237" y="275" width="38" height="10" rx="6" fill="white" opacity="0.4"/>
    <ellipse cx="319" cy="283" rx="10" ry="5" fill="white" opacity="0.4"/>
  </g>
  <text x="260" y="438" font-family="'Arial Black', sans-serif" font-size="92" font-weight="900" fill="#e0e7ff" text-anchor="middle" letter-spacing="-2">7ESAB</text>
  <text x="256" y="434" font-family="'Arial Black', sans-serif" font-size="92" font-weight="900" fill="url(#number3D)" text-anchor="middle" letter-spacing="-2" filter="url(#depth)">7ESAB</text>
  <rect x="188" y="463" width="136" height="4" rx="2" fill="#0a3d5c" opacity="0.2"/>
  <rect x="187" y="460" width="138" height="4" rx="2" fill="url(#number3D)" opacity="0.5"/>
  <text x="256" y="492" font-family="Arial, sans-serif" font-size="17" font-weight="600" fill="#0c4a6e" text-anchor="middle" letter-spacing="4" opacity="0.6">ERP SYSTEM</text>
</svg>